<svg width="501" height="83" viewBox="0 0 501 83" fill="none" xmlns="http://www.w3.org/2000/svg">
<path d="M36.7749 68L30.0549 28.352H29.6709L22.7589 68H9.31888L0.00687507 0.799995H12.8709L15.5589 20.576L17.5749 42.848H18.0549L21.6069 20.672L24.5829 0.799995H35.4309L38.3109 20.672L41.9589 42.848H42.4389L44.3589 20.576L47.0469 0.799995H59.9109L50.5989 68H36.7749ZM92.2651 68H71.3371C64.9371 62.048 61.7371 53.92 61.7371 43.616C61.7371 38.432 62.4411 33.92 63.8491 30.08C65.3211 26.24 67.6251 22.528 70.7611 18.944H93.2251C96.5531 22.784 98.8251 26.528 100.041 30.176C101.257 33.76 101.865 38.24 101.865 43.616C101.865 53.92 98.6651 62.048 92.2651 68ZM78.1531 57.92H85.4491C87.7531 53.44 88.9051 48.352 88.9051 42.656C88.9051 36.96 87.7211 32.416 85.3531 29.024H78.1531C75.8491 32.288 74.6971 36.928 74.6971 42.944C74.6971 48.896 75.8491 53.888 78.1531 57.92ZM108.833 68V18.944H117.953L120.353 24.128C122.913 20.672 126.145 18.944 130.049 18.944H133.793V31.808H121.601V68H108.833ZM151.972 0.799995V68H139.3V0.799995H151.972ZM197.358 68H187.662L185.934 64.544C184.526 65.824 183.182 66.72 181.902 67.232C180.686 67.744 178.83 68 176.334 68H167.982C165.166 65.312 162.926 61.792 161.262 57.44C159.662 53.088 158.862 48.224 158.862 42.848C158.862 37.408 159.662 32.8 161.262 29.024C162.926 25.248 165.262 21.888 168.27 18.944H176.526C179.918 18.944 182.606 19.84 184.59 21.632V0.799995H197.358V68ZM184.59 29.024H175.374C173.006 33.056 171.822 38.016 171.822 43.904C171.822 49.728 172.974 54.4 175.278 57.92H184.59V29.024ZM224.685 56.864H241.581V68H217.197C212.973 64.032 209.773 59.008 207.597 52.928C205.421 46.848 204.333 40.608 204.333 34.208C204.333 27.744 205.549 21.536 207.981 15.584C210.413 9.632 214.029 4.70399 218.829 0.799995H241.581V12.32H224.685C222.957 14.304 221.453 17.504 220.173 21.92C218.957 26.336 218.349 30.56 218.349 34.592C218.349 38.624 218.957 42.848 220.173 47.264C221.453 51.68 222.957 54.88 224.685 56.864ZM264.198 68H254.118C251.302 64.416 249.382 60.832 248.358 57.248C247.334 53.664 246.822 49.184 246.822 43.808V18.944H259.59V44.768C259.59 50.592 260.742 54.976 263.046 57.92H271.974V18.944H284.742V68H274.662L272.934 64.544C270.502 66.848 267.59 68 264.198 68ZM292.956 18.944H303.228L304.668 22.4C306.076 21.12 307.388 20.224 308.604 19.712C309.884 19.2 311.772 18.944 314.268 18.944H322.908C325.596 21.568 327.708 24.96 329.244 29.12C330.78 33.28 331.548 37.856 331.548 42.848C331.548 53.536 328.348 61.92 321.948 68H313.788C310.396 68 307.708 67.104 305.724 65.312V82.4H292.956V18.944ZM305.724 57.92H314.94C317.308 53.888 318.492 48.992 318.492 43.232C318.492 37.472 317.276 32.736 314.844 29.024H305.724V57.92Z" fill="#047C3F"/>
<path d="M354.28 68V0.799995H381.64C384.776 1.952 387.56 3.968 389.992 6.848C392.424 9.728 393.64 13.216 393.64 17.312C393.64 24.544 391.272 29.6 386.536 32.48V32.864C392.424 36.128 395.368 41.248 395.368 48.224C395.368 56.224 391.304 62.816 383.176 68H354.28ZM367.336 28.544H376.84C379.656 26.816 381.064 24.192 381.064 20.672C381.064 17.152 379.752 14.368 377.128 12.32H367.336V28.544ZM367.336 56.864H377.224C378.376 56.032 379.4 54.72 380.296 52.928C381.256 51.136 381.736 49.344 381.736 47.552C381.736 45.76 381.352 44.128 380.584 42.656C379.816 41.184 378.856 40.096 377.704 39.392H367.336V56.864ZM424.07 29.024H416.87C415.91 30.176 415.11 31.776 414.47 33.824C413.894 35.872 413.606 37.856 413.606 39.776H427.334C427.462 37.856 427.206 35.872 426.566 33.824C425.926 31.712 425.094 30.112 424.07 29.024ZM437.126 57.92V68H412.742C408.262 64.992 405.094 61.28 403.238 56.864C401.446 52.384 400.55 47.872 400.55 43.328C400.55 32.832 404.518 24.704 412.454 18.944H428.006C432.294 22.08 435.206 25.408 436.742 28.928C438.278 32.448 439.046 36 439.046 39.584C439.046 43.168 438.758 46.24 438.182 48.8H414.278C414.47 50.272 415.014 51.968 415.91 53.888C416.87 55.744 417.894 57.088 418.982 57.92H437.126ZM447.43 46.592V29.024H440.806V18.944H447.43V5.6H460.198V18.944H468.07V29.024H460.198V49.664C460.198 53.568 460.87 56.32 462.214 57.92H468.07V68H454.438C451.046 64.864 448.998 61.472 448.294 57.824C447.718 54.752 447.43 51.008 447.43 46.592ZM478.319 18.944H499.535V29.024H484.559L493.679 42.56C497.775 48.384 500.047 52.384 500.495 54.56C500.751 55.584 500.879 56.64 500.879 57.728C500.879 62.272 499.183 65.696 495.791 68H471.311V57.92H488.879L478.607 42.848C478.159 42.144 477.455 41.152 476.495 39.872C475.599 38.592 474.895 37.568 474.383 36.8C473.871 35.968 473.519 35.36 473.327 34.976C473.135 34.592 472.879 34.112 472.559 33.536C472.239 32.896 472.015 32.352 471.887 31.904C471.631 30.688 471.503 29.696 471.503 28.928C471.503 24.256 473.775 20.928 478.319 18.944Z" fill="#F7DD43"/>
</svg>
