<svg width="502" height="83" viewBox="0 0 502 83" fill="none" xmlns="http://www.w3.org/2000/svg">
<path d="M37.728 68L31.008 28.352H30.624L23.712 68H10.272L0.96 0.799995H13.824L16.512 20.576L18.528 42.848H19.008L22.56 20.672L25.536 0.799995H36.384L39.264 20.672L42.912 42.848H43.392L45.312 20.576L48 0.799995H60.864L51.552 68H37.728ZM93.2183 68H72.2903C65.8903 62.048 62.6903 53.92 62.6903 43.616C62.6903 38.432 63.3943 33.92 64.8023 30.08C66.2743 26.24 68.5783 22.528 71.7143 18.944H94.1783C97.5063 22.784 99.7783 26.528 100.994 30.176C102.21 33.76 102.818 38.24 102.818 43.616C102.818 53.92 99.6183 62.048 93.2183 68ZM79.1063 57.92H86.4023C88.7063 53.44 89.8583 48.352 89.8583 42.656C89.8583 36.96 88.6743 32.416 86.3063 29.024H79.1063C76.8023 32.288 75.6503 36.928 75.6503 42.944C75.6503 48.896 76.8023 53.888 79.1063 57.92ZM109.787 68V18.944H118.907L121.307 24.128C123.867 20.672 127.099 18.944 131.003 18.944H134.747V31.808H122.555V68H109.787ZM152.925 0.799995V68H140.253V0.799995H152.925ZM198.311 68H188.615L186.887 64.544C185.479 65.824 184.135 66.72 182.855 67.232C181.639 67.744 179.783 68 177.287 68H168.935C166.119 65.312 163.879 61.792 162.215 57.44C160.615 53.088 159.815 48.224 159.815 42.848C159.815 37.408 160.615 32.8 162.215 29.024C163.879 25.248 166.215 21.888 169.223 18.944H177.479C180.871 18.944 183.559 19.84 185.543 21.632V0.799995H198.311V68ZM185.543 29.024H176.327C173.959 33.056 172.775 38.016 172.775 43.904C172.775 49.728 173.927 54.4 176.231 57.92H185.543V29.024ZM225.638 56.864H242.534V68H218.15C213.926 64.032 210.726 59.008 208.55 52.928C206.374 46.848 205.286 40.608 205.286 34.208C205.286 27.744 206.502 21.536 208.934 15.584C211.366 9.632 214.982 4.70399 219.782 0.799995H242.534V12.32H225.638C223.91 14.304 222.406 17.504 221.126 21.92C219.91 26.336 219.302 30.56 219.302 34.592C219.302 38.624 219.91 42.848 221.126 47.264C222.406 51.68 223.91 54.88 225.638 56.864ZM265.151 68H255.071C252.255 64.416 250.335 60.832 249.311 57.248C248.287 53.664 247.775 49.184 247.775 43.808V18.944H260.543V44.768C260.543 50.592 261.695 54.976 263.999 57.92H272.927V18.944H285.695V68H275.615L273.887 64.544C271.455 66.848 268.543 68 265.151 68ZM293.909 18.944H304.181L305.621 22.4C307.029 21.12 308.341 20.224 309.557 19.712C310.837 19.2 312.725 18.944 315.221 18.944H323.861C326.549 21.568 328.661 24.96 330.197 29.12C331.733 33.28 332.501 37.856 332.501 42.848C332.501 53.536 329.301 61.92 322.901 68H314.741C311.349 68 308.661 67.104 306.677 65.312V82.4H293.909V18.944ZM306.677 57.92H315.893C318.261 53.888 319.445 48.992 319.445 43.232C319.445 37.472 318.229 32.736 315.797 29.024H306.677V57.92Z" fill="#047C3F"/>
<path d="M355.233 68V0.799995H382.593C385.729 1.952 388.513 3.968 390.945 6.848C393.377 9.728 394.593 13.216 394.593 17.312C394.593 24.544 392.225 29.6 387.489 32.48V32.864C393.377 36.128 396.321 41.248 396.321 48.224C396.321 56.224 392.257 62.816 384.129 68H355.233ZM368.289 28.544H377.793C380.609 26.816 382.017 24.192 382.017 20.672C382.017 17.152 380.705 14.368 378.081 12.32H368.289V28.544ZM368.289 56.864H378.177C379.329 56.032 380.353 54.72 381.249 52.928C382.209 51.136 382.689 49.344 382.689 47.552C382.689 45.76 382.305 44.128 381.537 42.656C380.769 41.184 379.809 40.096 378.657 39.392H368.289V56.864ZM425.023 29.024H417.823C416.863 30.176 416.063 31.776 415.423 33.824C414.847 35.872 414.559 37.856 414.559 39.776H428.287C428.415 37.856 428.159 35.872 427.519 33.824C426.879 31.712 426.047 30.112 425.023 29.024ZM438.079 57.92V68H413.695C409.215 64.992 406.047 61.28 404.191 56.864C402.399 52.384 401.503 47.872 401.503 43.328C401.503 32.832 405.471 24.704 413.407 18.944H428.959C433.247 22.08 436.159 25.408 437.695 28.928C439.231 32.448 439.999 36 439.999 39.584C439.999 43.168 439.711 46.24 439.135 48.8H415.231C415.423 50.272 415.967 51.968 416.863 53.888C417.823 55.744 418.847 57.088 419.935 57.92H438.079ZM448.383 46.592V29.024H441.759V18.944H448.383V5.6H461.151V18.944H469.023V29.024H461.151V49.664C461.151 53.568 461.823 56.32 463.167 57.92H469.023V68H455.391C451.999 64.864 449.951 61.472 449.247 57.824C448.671 54.752 448.383 51.008 448.383 46.592ZM479.272 18.944H500.488V29.024H485.512L494.632 42.56C498.728 48.384 501 52.384 501.448 54.56C501.704 55.584 501.832 56.64 501.832 57.728C501.832 62.272 500.136 65.696 496.744 68H472.264V57.92H489.832L479.56 42.848C479.112 42.144 478.408 41.152 477.448 39.872C476.552 38.592 475.848 37.568 475.336 36.8C474.824 35.968 474.472 35.36 474.28 34.976C474.088 34.592 473.832 34.112 473.512 33.536C473.192 32.896 472.968 32.352 472.84 31.904C472.584 30.688 472.456 29.696 472.456 28.928C472.456 24.256 474.728 20.928 479.272 18.944Z" fill="#F7DD43"/>
</svg>
